<svg width="22" height="21" viewBox="0 0 22 21" fill="none" xmlns="http://www.w3.org/2000/svg">
<path d="M12.5946 2.73759L12.5942 2.73808L11.7477 3.68964L11.0005 4.52955L10.2534 3.68964L9.40689 2.73808L9.4058 2.73686C7.56841 0.664554 4.70448 0.41383 2.81721 2.16809C0.527277 4.30057 0.394282 8.18933 2.45891 10.5178L10.7728 19.8828C10.8571 19.9777 10.9401 20.0004 10.9984 20.0004C11.0566 20.0004 11.1395 19.9778 11.2238 19.883C11.2239 19.8829 11.2239 19.8828 11.224 19.8828L19.5382 10.5174L19.5384 10.5171C21.6065 8.1889 21.4737 4.3008 19.1841 2.16833L12.5946 2.73759ZM12.5946 2.73759C14.4368 0.664047 17.2967 0.414221 19.1835 2.1678L12.5946 2.73759Z" stroke="#FF5652" stroke-width="2"/>
</svg>
